<?xml version="1.0" encoding="utf-8"?>
<!-- Generator: Adobe Illustrator 16.0.2, SVG Export Plug-In . SVG Version: 6.00 Build 0)  -->
<!DOCTYPE svg PUBLIC "-//W3C//DTD SVG 1.1//EN" "http://www.w3.org/Graphics/SVG/1.1/DTD/svg11.dtd">
<svg version="1.1" id="Layer_1" xmlns="http://www.w3.org/2000/svg" xmlns:xlink="http://www.w3.org/1999/xlink" x="0px" y="0px"
	 width="428.097px" height="493px" viewBox="9.94 8.941 428.097 493" enable-background="new 9.94 8.941 428.097 493"
	 xml:space="preserve">
<g>
	<path d="M432.074,249.471c-41.064,0-78.48,20.794-100.086,55.626l-2.641,4.256H146.789c-17.591,0-34.127,6.851-46.563,19.289
		l-88.541,88.539c-2.326,2.327-2.326,6.118,0.002,8.448c36.205,36.2,73.844,73.565,74.837,74.544
		c1.161,1.153,2.652,1.768,4.237,1.768c1.591,0,3.088-0.617,4.215-1.739l59.416-59.141h129.13c35.76,0,68.271-19.667,84.844-51.326
		l0.992-1.891c14.049-26.807,48.797-93.098,67.998-129.624c0.967-1.841,0.9-4.089-0.174-5.867
		C436.108,250.575,434.153,249.471,432.074,249.471z M413.307,278.326c-19.875,37.863-44.85,85.516-52.895,100.868l-2.629,5.016
		c-14.502,27.694-42.959,44.909-74.262,44.909H151.927c-1.591,0-3.087,0.617-4.211,1.736l-56.96,56.698l-6.35-6.31
		c-8.192-8.141-29.824-29.648-53.686-53.478l-6.371-6.364l84.316-84.317c10.184-10.183,23.722-15.79,38.122-15.79h176.36
		l-18.396,35.1c-4.15,7.921-12.285,12.842-21.23,12.842H181.869c-3.292,0-5.971,2.679-5.971,5.971s2.679,5.971,5.971,5.971h101.653
		c13.398,0,25.588-7.373,31.811-19.242l0.01,0.006c0.918-1.779,4.844-9.271,23.096-44.097
		c13.441-25.427,36.918-44.499,64.428-52.355l20.209-5.771L413.307,278.326z"/>
	<path d="M136.957,261.412h179.649c3.291,0,5.971-2.679,5.971-5.971V74.795c0-3.292-2.68-5.971-5.971-5.971h-53.912V44.854
		c0-19.802-16.111-35.912-35.913-35.912s-35.912,16.11-35.912,35.912v23.971h-53.912c-3.292,0-5.971,2.678-5.971,5.971v180.646
		C130.986,258.733,133.665,261.412,136.957,261.412z M202.81,44.854c0-13.217,10.753-23.971,23.971-23.971
		s23.971,10.753,23.971,23.971v23.971H202.81V44.854z M142.927,80.766h47.941v23.971c0,3.292,2.679,5.971,5.971,5.971
		s5.971-2.678,5.971-5.971V80.766h47.941v23.971c0,3.292,2.679,5.971,5.971,5.971c3.291,0,5.971-2.678,5.971-5.971V80.766h47.941
		v168.706H142.927V80.766z"/>
</g>
</svg>
